<?xml version="1.0" encoding="UTF-8"?>
<svg xmlns="http://www.w3.org/2000/svg" width="256" height="256"
     viewBox="0 0 256 256">
  <defs>
    <linearGradient id="bg" x1="0" y1="0" x2="1" y2="1">
      <stop offset="0"   stop-color="#0c4a6e"/>
      <stop offset="0.55" stop-color="#0284c7"/>
      <stop offset="1"   stop-color="#38bdf8"/>
    </linearGradient>
    <linearGradient id="glow" x1="0" y1="0" x2="0" y2="1">
      <stop offset="0" stop-color="#ffffff" stop-opacity="0.22"/>
      <stop offset="0.5" stop-color="#ffffff" stop-opacity="0"/>
    </linearGradient>
    <filter id="soft" x="-20%" y="-20%" width="140%" height="140%">
      <feGaussianBlur stdDeviation="1.1"/>
    </filter>
  </defs>

  <!-- Insignia redondeada -->
  <rect x="6" y="6" width="244" height="244" rx="56" fill="url(#bg)"/>
  <rect x="6" y="6" width="244" height="244" rx="56" fill="url(#glow)"/>

  <!-- Línea base (eje de transmisión) -->
  <line x1="34" y1="86.0" x2="222" y2="86.0"
        stroke="#bae6fd" stroke-opacity="0.55" stroke-width="2"
        stroke-dasharray="2 5" stroke-linecap="round"/>

  <!-- Datos -->
    <circle cx="34.0" cy="98.8" r="2.2" fill="#dff3ff" fill-opacity="0.9"/>
    <circle cx="40.3" cy="108.3" r="2.2" fill="#dff3ff" fill-opacity="0.9"/>
    <circle cx="46.5" cy="128.9" r="2.2" fill="#dff3ff" fill-opacity="0.9"/>
    <circle cx="52.8" cy="179.6" r="2.2" fill="#dff3ff" fill-opacity="0.9"/>
    <circle cx="59.1" cy="191.0" r="2.2" fill="#dff3ff" fill-opacity="0.9"/>
    <circle cx="65.3" cy="141.3" r="2.2" fill="#dff3ff" fill-opacity="0.9"/>
    <circle cx="71.6" cy="122.1" r="2.2" fill="#dff3ff" fill-opacity="0.9"/>
    <circle cx="77.9" cy="132.4" r="2.2" fill="#dff3ff" fill-opacity="0.9"/>
    <circle cx="84.1" cy="164.0" r="2.2" fill="#dff3ff" fill-opacity="0.9"/>
    <circle cx="90.4" cy="155.1" r="2.2" fill="#dff3ff" fill-opacity="0.9"/>
    <circle cx="96.7" cy="123.7" r="2.2" fill="#dff3ff" fill-opacity="0.9"/>
    <circle cx="102.9" cy="111.4" r="2.2" fill="#dff3ff" fill-opacity="0.9"/>
    <circle cx="109.2" cy="116.7" r="2.2" fill="#dff3ff" fill-opacity="0.9"/>
    <circle cx="115.5" cy="133.6" r="2.2" fill="#dff3ff" fill-opacity="0.9"/>
    <circle cx="121.7" cy="125.4" r="2.2" fill="#dff3ff" fill-opacity="0.9"/>
    <circle cx="128.0" cy="115.8" r="2.2" fill="#dff3ff" fill-opacity="0.9"/>
    <circle cx="134.3" cy="125.1" r="2.2" fill="#dff3ff" fill-opacity="0.9"/>
    <circle cx="140.5" cy="133.5" r="2.2" fill="#dff3ff" fill-opacity="0.9"/>
    <circle cx="146.8" cy="115.5" r="2.2" fill="#dff3ff" fill-opacity="0.9"/>
    <circle cx="153.1" cy="111.4" r="2.2" fill="#dff3ff" fill-opacity="0.9"/>
    <circle cx="159.3" cy="123.8" r="2.2" fill="#dff3ff" fill-opacity="0.9"/>
    <circle cx="165.6" cy="153.1" r="2.2" fill="#dff3ff" fill-opacity="0.9"/>
    <circle cx="171.9" cy="163.9" r="2.2" fill="#dff3ff" fill-opacity="0.9"/>
    <circle cx="178.1" cy="130.3" r="2.2" fill="#dff3ff" fill-opacity="0.9"/>
    <circle cx="184.4" cy="124.2" r="2.2" fill="#dff3ff" fill-opacity="0.9"/>
    <circle cx="190.7" cy="140.4" r="2.2" fill="#dff3ff" fill-opacity="0.9"/>
    <circle cx="196.9" cy="191.1" r="2.2" fill="#dff3ff" fill-opacity="0.9"/>
    <circle cx="203.2" cy="177.8" r="2.2" fill="#dff3ff" fill-opacity="0.9"/>
    <circle cx="209.5" cy="129.9" r="2.2" fill="#dff3ff" fill-opacity="0.9"/>
    <circle cx="215.7" cy="108.4" r="2.2" fill="#dff3ff" fill-opacity="0.9"/>
    <circle cx="222.0" cy="97.6" r="2.2" fill="#dff3ff" fill-opacity="0.9"/>

  <!-- Sombra suave del fit -->
  <path d="M 34.00,99.09 L 34.85,99.92 L 35.71,100.85 L 36.56,101.87 L 37.42,103.01 L 38.27,104.27 L 39.13,105.69 L 39.98,107.27 L 40.84,109.05 L 41.69,111.06 L 42.55,113.34 L 43.40,115.92 L 44.25,118.87 L 45.11,122.23 L 45.96,126.07 L 46.82,130.46 L 47.67,135.47 L 48.53,141.17 L 49.38,147.60 L 50.24,154.77 L 51.09,162.59 L 51.95,170.88 L 52.80,179.29 L 53.65,187.27 L 54.51,194.11 L 55.36,199.04 L 56.22,201.42 L 57.07,200.93 L 57.93,197.67 L 58.78,192.18 L 59.64,185.17 L 60.49,177.43 L 61.35,169.58 L 62.20,162.07 L 63.05,155.17 L 63.91,149.02 L 64.76,143.64 L 65.62,139.03 L 66.47,135.12 L 67.33,131.87 L 68.18,129.21 L 69.04,127.08 L 69.89,125.44 L 70.75,124.25 L 71.60,123.49 L 72.45,123.13 L 73.31,123.18 L 74.16,123.64 L 75.02,124.51 L 75.87,125.83 L 76.73,127.61 L 77.58,129.89 L 78.44,132.70 L 79.29,136.07 L 80.15,140.00 L 81.00,144.45 L 81.85,149.33 L 82.71,154.43 L 83.56,159.43 L 84.42,163.88 L 85.27,167.28 L 86.13,169.14 L 86.98,169.15 L 87.84,167.29 L 88.69,163.80 L 89.55,159.15 L 90.40,153.84 L 91.25,148.33 L 92.11,142.97 L 92.96,137.98 L 93.82,133.47 L 94.67,129.48 L 95.53,126.01 L 96.38,123.03 L 97.24,120.50 L 98.09,118.38 L 98.95,116.62 L 99.80,115.19 L 100.65,114.06 L 101.51,113.21 L 102.36,112.62 L 103.22,112.28 L 104.07,112.19 L 104.93,112.34 L 105.78,112.75 L 106.64,113.41 L 107.49,114.36 L 108.35,115.59 L 109.20,117.12 L 110.05,118.96 L 110.91,121.09 L 111.76,123.46 L 112.62,126.00 L 113.47,128.54 L 114.33,130.89 L 115.18,132.78 L 116.04,133.97 L 116.89,134.28 L 117.75,133.68 L 118.60,132.26 L 119.45,130.24 L 120.31,127.88 L 121.16,125.42 L 122.02,123.05 L 122.87,120.91 L 123.73,119.06 L 124.58,117.53 L 125.44,116.36 L 126.29,115.52 L 127.15,115.02 L 128.00,114.86 L 128.85,115.02 L 129.71,115.52 L 130.56,116.36 L 131.42,117.53 L 132.27,119.06 L 133.13,120.91 L 133.98,123.05 L 134.84,125.42 L 135.69,127.88 L 136.55,130.24 L 137.40,132.26 L 138.25,133.68 L 139.11,134.28 L 139.96,133.97 L 140.82,132.78 L 141.67,130.89 L 142.53,128.54 L 143.38,126.00 L 144.24,123.46 L 145.09,121.09 L 145.95,118.96 L 146.80,117.12 L 147.65,115.59 L 148.51,114.36 L 149.36,113.41 L 150.22,112.75 L 151.07,112.34 L 151.93,112.19 L 152.78,112.28 L 153.64,112.62 L 154.49,113.21 L 155.35,114.06 L 156.20,115.19 L 157.05,116.62 L 157.91,118.38 L 158.76,120.50 L 159.62,123.03 L 160.47,126.01 L 161.33,129.48 L 162.18,133.47 L 163.04,137.98 L 163.89,142.97 L 164.75,148.33 L 165.60,153.84 L 166.45,159.15 L 167.31,163.80 L 168.16,167.29 L 169.02,169.15 L 169.87,169.14 L 170.73,167.28 L 171.58,163.88 L 172.44,159.43 L 173.29,154.43 L 174.15,149.33 L 175.00,144.45 L 175.85,140.00 L 176.71,136.07 L 177.56,132.70 L 178.42,129.89 L 179.27,127.61 L 180.13,125.83 L 180.98,124.51 L 181.84,123.64 L 182.69,123.18 L 183.55,123.13 L 184.40,123.49 L 185.25,124.25 L 186.11,125.44 L 186.96,127.08 L 187.82,129.21 L 188.67,131.87 L 189.53,135.12 L 190.38,139.03 L 191.24,143.64 L 192.09,149.02 L 192.95,155.17 L 193.80,162.07 L 194.65,169.58 L 195.51,177.43 L 196.36,185.17 L 197.22,192.18 L 198.07,197.67 L 198.93,200.93 L 199.78,201.42 L 200.64,199.04 L 201.49,194.11 L 202.35,187.27 L 203.20,179.29 L 204.05,170.88 L 204.91,162.59 L 205.76,154.77 L 206.62,147.60 L 207.47,141.17 L 208.33,135.47 L 209.18,130.46 L 210.04,126.07 L 210.89,122.23 L 211.75,118.87 L 212.60,115.92 L 213.45,113.34 L 214.31,111.06 L 215.16,109.05 L 216.02,107.27 L 216.87,105.69 L 217.73,104.27 L 218.58,103.01 L 219.44,101.87 L 220.29,100.85 L 221.15,99.92 L 222.00,99.09" fill="none" stroke="#06283d" stroke-opacity="0.45"
        stroke-width="9" stroke-linejoin="round" stroke-linecap="round"
        filter="url(#soft)"/>
  <!-- Curva de ajuste -->
  <path d="M 34.00,99.09 L 34.85,99.92 L 35.71,100.85 L 36.56,101.87 L 37.42,103.01 L 38.27,104.27 L 39.13,105.69 L 39.98,107.27 L 40.84,109.05 L 41.69,111.06 L 42.55,113.34 L 43.40,115.92 L 44.25,118.87 L 45.11,122.23 L 45.96,126.07 L 46.82,130.46 L 47.67,135.47 L 48.53,141.17 L 49.38,147.60 L 50.24,154.77 L 51.09,162.59 L 51.95,170.88 L 52.80,179.29 L 53.65,187.27 L 54.51,194.11 L 55.36,199.04 L 56.22,201.42 L 57.07,200.93 L 57.93,197.67 L 58.78,192.18 L 59.64,185.17 L 60.49,177.43 L 61.35,169.58 L 62.20,162.07 L 63.05,155.17 L 63.91,149.02 L 64.76,143.64 L 65.62,139.03 L 66.47,135.12 L 67.33,131.87 L 68.18,129.21 L 69.04,127.08 L 69.89,125.44 L 70.75,124.25 L 71.60,123.49 L 72.45,123.13 L 73.31,123.18 L 74.16,123.64 L 75.02,124.51 L 75.87,125.83 L 76.73,127.61 L 77.58,129.89 L 78.44,132.70 L 79.29,136.07 L 80.15,140.00 L 81.00,144.45 L 81.85,149.33 L 82.71,154.43 L 83.56,159.43 L 84.42,163.88 L 85.27,167.28 L 86.13,169.14 L 86.98,169.15 L 87.84,167.29 L 88.69,163.80 L 89.55,159.15 L 90.40,153.84 L 91.25,148.33 L 92.11,142.97 L 92.96,137.98 L 93.82,133.47 L 94.67,129.48 L 95.53,126.01 L 96.38,123.03 L 97.24,120.50 L 98.09,118.38 L 98.95,116.62 L 99.80,115.19 L 100.65,114.06 L 101.51,113.21 L 102.36,112.62 L 103.22,112.28 L 104.07,112.19 L 104.93,112.34 L 105.78,112.75 L 106.64,113.41 L 107.49,114.36 L 108.35,115.59 L 109.20,117.12 L 110.05,118.96 L 110.91,121.09 L 111.76,123.46 L 112.62,126.00 L 113.47,128.54 L 114.33,130.89 L 115.18,132.78 L 116.04,133.97 L 116.89,134.28 L 117.75,133.68 L 118.60,132.26 L 119.45,130.24 L 120.31,127.88 L 121.16,125.42 L 122.02,123.05 L 122.87,120.91 L 123.73,119.06 L 124.58,117.53 L 125.44,116.36 L 126.29,115.52 L 127.15,115.02 L 128.00,114.86 L 128.85,115.02 L 129.71,115.52 L 130.56,116.36 L 131.42,117.53 L 132.27,119.06 L 133.13,120.91 L 133.98,123.05 L 134.84,125.42 L 135.69,127.88 L 136.55,130.24 L 137.40,132.26 L 138.25,133.68 L 139.11,134.28 L 139.96,133.97 L 140.82,132.78 L 141.67,130.89 L 142.53,128.54 L 143.38,126.00 L 144.24,123.46 L 145.09,121.09 L 145.95,118.96 L 146.80,117.12 L 147.65,115.59 L 148.51,114.36 L 149.36,113.41 L 150.22,112.75 L 151.07,112.34 L 151.93,112.19 L 152.78,112.28 L 153.64,112.62 L 154.49,113.21 L 155.35,114.06 L 156.20,115.19 L 157.05,116.62 L 157.91,118.38 L 158.76,120.50 L 159.62,123.03 L 160.47,126.01 L 161.33,129.48 L 162.18,133.47 L 163.04,137.98 L 163.89,142.97 L 164.75,148.33 L 165.60,153.84 L 166.45,159.15 L 167.31,163.80 L 168.16,167.29 L 169.02,169.15 L 169.87,169.14 L 170.73,167.28 L 171.58,163.88 L 172.44,159.43 L 173.29,154.43 L 174.15,149.33 L 175.00,144.45 L 175.85,140.00 L 176.71,136.07 L 177.56,132.70 L 178.42,129.89 L 179.27,127.61 L 180.13,125.83 L 180.98,124.51 L 181.84,123.64 L 182.69,123.18 L 183.55,123.13 L 184.40,123.49 L 185.25,124.25 L 186.11,125.44 L 186.96,127.08 L 187.82,129.21 L 188.67,131.87 L 189.53,135.12 L 190.38,139.03 L 191.24,143.64 L 192.09,149.02 L 192.95,155.17 L 193.80,162.07 L 194.65,169.58 L 195.51,177.43 L 196.36,185.17 L 197.22,192.18 L 198.07,197.67 L 198.93,200.93 L 199.78,201.42 L 200.64,199.04 L 201.49,194.11 L 202.35,187.27 L 203.20,179.29 L 204.05,170.88 L 204.91,162.59 L 205.76,154.77 L 206.62,147.60 L 207.47,141.17 L 208.33,135.47 L 209.18,130.46 L 210.04,126.07 L 210.89,122.23 L 211.75,118.87 L 212.60,115.92 L 213.45,113.34 L 214.31,111.06 L 215.16,109.05 L 216.02,107.27 L 216.87,105.69 L 217.73,104.27 L 218.58,103.01 L 219.44,101.87 L 220.29,100.85 L 221.15,99.92 L 222.00,99.09" fill="none" stroke="#ffffff"
        stroke-width="6.5" stroke-linejoin="round" stroke-linecap="round"/>
</svg>
