<svg xmlns="http://www.w3.org/2000/svg" width="800" height="420" viewBox="0 0 800 420">
<rect x="0" y="0" width="800" height="420" fill="#f8fafc" stroke="none" stroke-width="0" rx="12"/>
<text x="400" y="34" text-anchor="middle" font-family="system-ui,sans-serif" font-size="16" font-weight="700" fill="#0f172a">Layout adaptativo según tamaño de ventana</text>
<line x1="24" y1="50" x2="776" y2="50" stroke="#e2e8f0" stroke-width="1.5"/>
<text x="175" y="58" text-anchor="middle" font-family="system-ui,sans-serif" font-size="11" font-weight="600" fill="#166534">Ventana alta → componentes apilados</text>
<rect x="60" y="68" width="230" height="310" fill="white" stroke="#86efac" stroke-width="2" rx="8"/>
<rect x="60" y="68" width="230" height="18" fill="#bbf7d0" stroke="none" stroke-width="0" rx="8 8 0 0"/>
<text x="175" y="80" text-anchor="middle" font-family="system-ui,sans-serif" font-size="8" font-weight="normal" fill="#166534">Controles de ajuste</text>
<rect x="64" y="90" width="222" height="18" fill="#f0fdf4" stroke="#86efac" stroke-width="0.8" rx="3"/>
<text x="175" y="102" text-anchor="middle" font-family="system-ui,sans-serif" font-size="7" font-weight="normal" fill="#15803d">Liberar  Fijar  Auto  IA     Ajustar ▶</text>
<rect x="64" y="112" width="222" height="14" fill="#f8fafc" stroke="#e2e8f0" stroke-width="0.5" rx="2"/>
<text x="72" y="122" text-anchor="start" font-family="system-ui,sans-serif" font-size="7" font-weight="normal" fill="#475569">Componentes: [3]</text>
<rect x="64" y="130" width="222" height="72" fill="#dbeafe" stroke="#93c5fd" stroke-width="1" rx="4"/>
<text x="175" y="140" text-anchor="middle" font-family="system-ui,sans-serif" font-size="8" font-weight="600" fill="#1d4ed8">Componente 1</text>
<rect x="68" y="146" width="104" height="52" fill="#eff6ff" stroke="#bfdbfe" stroke-width="0.5" rx="2"/>
<rect x="176" y="146" width="104" height="52" fill="#eff6ff" stroke="#bfdbfe" stroke-width="0.5" rx="2"/>
<text x="72" y="158" text-anchor="start" font-family="system-ui,sans-serif" font-size="7" font-weight="normal" fill="#3b82f6">δ  Δ  Bhf  Γ₁  A</text>
<text x="180" y="158" text-anchor="start" font-family="system-ui,sans-serif" font-size="7" font-weight="normal" fill="#3b82f6">Γ₂ Γ₃ I₁ I₂ I₃</text>
<rect x="64" y="206" width="222" height="72" fill="#fce7f3" stroke="#f9a8d4" stroke-width="1" rx="4"/>
<text x="175" y="216" text-anchor="middle" font-family="system-ui,sans-serif" font-size="8" font-weight="600" fill="#9d174d">Componente 2</text>
<rect x="68" y="222" width="104" height="52" fill="#fdf2f8" stroke="#f0abfc" stroke-width="0.5" rx="2"/>
<rect x="176" y="222" width="104" height="52" fill="#fdf2f8" stroke="#f0abfc" stroke-width="0.5" rx="2"/>
<text x="72" y="234" text-anchor="start" font-family="system-ui,sans-serif" font-size="7" font-weight="normal" fill="#be185d">δ  Δ  Bhf  Γ₁  A</text>
<text x="180" y="234" text-anchor="start" font-family="system-ui,sans-serif" font-size="7" font-weight="normal" fill="#be185d">Γ₂ Γ₃ I₁ I₂ I₃</text>
<rect x="64" y="282" width="222" height="80" fill="#fef3c7" stroke="#fcd34d" stroke-width="1" rx="4"/>
<text x="175" y="292" text-anchor="middle" font-family="system-ui,sans-serif" font-size="8" font-weight="600" fill="#92400e">Componente 3</text>
<rect x="68" y="298" width="104" height="52" fill="#fffbeb" stroke="#fde68a" stroke-width="0.5" rx="2"/>
<rect x="176" y="298" width="104" height="52" fill="#fffbeb" stroke="#fde68a" stroke-width="0.5" rx="2"/>
<text x="72" y="310" text-anchor="start" font-family="system-ui,sans-serif" font-size="7" font-weight="normal" fill="#b45309">δ  Δ  Bhf  Γ₁  A</text>
<text x="180" y="310" text-anchor="start" font-family="system-ui,sans-serif" font-size="7" font-weight="normal" fill="#b45309">Γ₂ Γ₃ I₁ I₂ I₃</text>
<line x1="302" y1="68" x2="302" y2="378" stroke="#22c55e" stroke-width="2" stroke-dasharray="4,3"/>
<line x1="298" y1="68" x2="306" y2="68" stroke="#22c55e" stroke-width="2"/>
<line x1="298" y1="378" x2="306" y2="378" stroke="#22c55e" stroke-width="2"/>
<text x="320" y="223" text-anchor="start" font-family="system-ui,sans-serif" font-size="9" font-weight="normal" fill="#15803d">ventana</text>
<text x="320" y="236" text-anchor="start" font-family="system-ui,sans-serif" font-size="9" font-weight="normal" fill="#15803d">alta</text>
<text x="386" y="193" text-anchor="middle" font-family="system-ui,sans-serif" font-size="9" font-weight="normal" fill="#64748b">ventana</text>
<text x="386" y="205" text-anchor="middle" font-family="system-ui,sans-serif" font-size="9" font-weight="normal" fill="#64748b">pequeña</text>
<path d="M386,217 L386,229" stroke="#94a3b8" stroke-width="2"/>
<path d="M380,226 L386,233 L392,226" fill="none" stroke="#94a3b8" stroke-width="2"/>
<text x="386" y="253" text-anchor="middle" font-family="system-ui,sans-serif" font-size="9" font-weight="normal" fill="#64748b">ventana</text>
<text x="386" y="265" text-anchor="middle" font-family="system-ui,sans-serif" font-size="9" font-weight="normal" fill="#64748b">grande</text>
<path d="M386,276 L386,288" stroke="#94a3b8" stroke-width="2"/>
<path d="M380,279 L386,273 L392,279" fill="none" stroke="#94a3b8" stroke-width="2"/>
<text x="386" y="223" text-anchor="middle" font-family="system-ui,sans-serif" font-size="22" font-weight="normal" fill="#94a3b8">⇄</text>
<text x="545" y="103" text-anchor="middle" font-family="system-ui,sans-serif" font-size="11" font-weight="600" fill="#1e3a5f">Ventana baja → componentes en pestañas</text>
<rect x="430" y="113" width="230" height="220" fill="white" stroke="#93c5fd" stroke-width="2" rx="8"/>
<rect x="430" y="113" width="230" height="18" fill="#bfdbfe" stroke="none" stroke-width="0" rx="8 8 0 0"/>
<text x="545" y="125" text-anchor="middle" font-family="system-ui,sans-serif" font-size="8" font-weight="normal" fill="#1d4ed8">Controles de ajuste</text>
<rect x="434" y="135" width="222" height="18" fill="#eff6ff" stroke="#93c5fd" stroke-width="0.8" rx="3"/>
<text x="545" y="147" text-anchor="middle" font-family="system-ui,sans-serif" font-size="7" font-weight="normal" fill="#1d4ed8">Liberar  Fijar  Auto  IA     Ajustar ▶</text>
<rect x="434" y="157" width="222" height="14" fill="#f8fafc" stroke="#e2e8f0" stroke-width="0.5" rx="2"/>
<text x="442" y="167" text-anchor="start" font-family="system-ui,sans-serif" font-size="7" font-weight="normal" fill="#475569">Componentes: [3]</text>
<rect x="434" y="175" width="222" height="22" fill="#f1f5f9" stroke="#cbd5e1" stroke-width="0.8" rx="3"/>
<rect x="435" y="176" width="69" height="20" fill="#dbeafe" stroke="#94a3b8" stroke-width="0.5" rx="3 3 0 0"/>
<text x="469" y="189" text-anchor="middle" font-family="system-ui,sans-serif" font-size="7" font-weight="600" fill="#1d4ed8">Comp 1</text>
<rect x="506" y="176" width="69" height="20" fill="#fce7f3" stroke="#94a3b8" stroke-width="0.5" rx="3 3 0 0"/>
<text x="540" y="189" text-anchor="middle" font-family="system-ui,sans-serif" font-size="7" font-weight="600" fill="#9d174d">Comp 2</text>
<rect x="577" y="176" width="69" height="20" fill="#fef3c7" stroke="#94a3b8" stroke-width="0.5" rx="3 3 0 0"/>
<text x="611" y="189" text-anchor="middle" font-family="system-ui,sans-serif" font-size="7" font-weight="600" fill="#92400e">Comp 3</text>
<rect x="434" y="197" width="222" height="128" fill="#eff6ff" stroke="#93c5fd" stroke-width="1" rx="4"/>
<text x="545" y="209" text-anchor="middle" font-family="system-ui,sans-serif" font-size="8" font-weight="600" fill="#1d4ed8">Componente 1 (activo)</text>
<rect x="438" y="215" width="103" height="105" fill="#dbeafe" stroke="#bfdbfe" stroke-width="0.5" rx="2"/>
<rect x="545" y="215" width="103" height="105" fill="#dbeafe" stroke="#bfdbfe" stroke-width="0.5" rx="2"/>
<text x="442" y="227" text-anchor="start" font-family="system-ui,sans-serif" font-size="7" font-weight="normal" fill="#3b82f6">δ  Δ  Bhf  Γ₁  A</text>
<text x="549" y="227" text-anchor="start" font-family="system-ui,sans-serif" font-size="7" font-weight="normal" fill="#3b82f6">Γ₂ Γ₃ I₁ I₂ I₃</text>
<line x1="672" y1="113" x2="672" y2="333" stroke="#3b82f6" stroke-width="2" stroke-dasharray="4,3"/>
<line x1="668" y1="113" x2="676" y2="113" stroke="#3b82f6" stroke-width="2"/>
<line x1="668" y1="333" x2="676" y2="333" stroke="#3b82f6" stroke-width="2"/>
<text x="690" y="223" text-anchor="start" font-family="system-ui,sans-serif" font-size="9" font-weight="normal" fill="#1d4ed8">ventana</text>
<text x="690" y="236" text-anchor="start" font-family="system-ui,sans-serif" font-size="9" font-weight="normal" fill="#1d4ed8">baja</text>
<rect x="210" y="402" width="380" height="38" fill="#f0fdf4" stroke="#86efac" stroke-width="1" rx="6"/>
<text x="400" y="416" text-anchor="middle" font-family="system-ui,sans-serif" font-size="9" font-weight="normal" fill="#166534">Histéresis: apilado → pestañas si panel > 88% ventana</text>
<text x="400" y="430" text-anchor="middle" font-family="system-ui,sans-serif" font-size="9" font-weight="normal" fill="#166534">pestañas → apilado si estimado < 78% ventana</text>
</svg>