<svg xmlns="http://www.w3.org/2000/svg" width="900" height="400" viewBox="0 0 900 400">
<rect x="0" y="0" width="900" height="400" fill="#f8fafc" stroke="none" stroke-width="0" rx="12"/>
<text x="450" y="34" text-anchor="middle" font-family="system-ui,ui-sans-serif,sans-serif" font-size="16" font-weight="700" fill="#0f172a">Presets de layout disponibles</text>
<line x1="24" y1="50" x2="876" y2="50" stroke="#e2e8f0" stroke-width="1.5"/>
<rect x="42" y="62" width="192" height="230" fill="white" stroke="#94a3b8" stroke-width="1.5" rx="6"/>
<rect x="42" y="62" width="192" height="20" fill="#e2e8f0" stroke="none" stroke-width="0" rx="6 6 0 0"/>
<circle cx="51" cy="72" r="4.5" fill="#f87171"/>
<circle cx="64" cy="72" r="4.5" fill="#fbbf24"/>
<circle cx="77" cy="72" r="4.5" fill="#4ade80"/>
<rect x="97" y="66" width="82" height="12" fill="#f1f5f9" stroke="#e2e8f0" stroke-width="0.5" rx="3"/>
<rect x="42" y="84" width="64" height="208" fill="#f8fafc" stroke="#e2e8f0" stroke-width="0.8" rx="0"/>
<rect x="43" y="84" width="62" height="40" fill="#bfdbfe" stroke="#94a3b8" stroke-width="0.8" rx="2"/>
<text x="74" y="107" text-anchor="middle" font-family="system-ui,ui-sans-serif,sans-serif" font-size="7" font-weight="normal" fill="#475569">Header</text>
<rect x="43" y="125" width="62" height="40" fill="#d1fae5" stroke="#94a3b8" stroke-width="0.8" rx="2"/>
<text x="74" y="148" text-anchor="middle" font-family="system-ui,ui-sans-serif,sans-serif" font-size="7" font-weight="normal" fill="#475569">Archivo</text>
<rect x="43" y="166" width="62" height="40" fill="#ede9fe" stroke="#94a3b8" stroke-width="0.8" rx="2"/>
<text x="74" y="189" text-anchor="middle" font-family="system-ui,ui-sans-serif,sans-serif" font-size="7" font-weight="normal" fill="#475569">Resultados</text>
<rect x="43" y="207" width="62" height="40" fill="#fef08a" stroke="#94a3b8" stroke-width="0.8" rx="2"/>
<text x="74" y="230" text-anchor="middle" font-family="system-ui,ui-sans-serif,sans-serif" font-size="7" font-weight="normal" fill="#475569">Calibr.</text>
<rect x="43" y="248" width="62" height="43" fill="#fce7f3" stroke="#94a3b8" stroke-width="0.8" rx="2"/>
<text x="74" y="272" text-anchor="middle" font-family="system-ui,ui-sans-serif,sans-serif" font-size="7" font-weight="normal" fill="#475569">Ref.</text>
<rect x="106" y="84" width="128" height="172" fill="#dbeafe" stroke="#93c5fd" stroke-width="0.8" rx="2"/>
<polyline points="110,170 125,170 140,170 155,170 170,182 185,170 200,170 215,170 230,170" fill="none" stroke="#2563eb" stroke-width="1.5"/>
<text x="170" y="95" text-anchor="middle" font-family="system-ui,ui-sans-serif,sans-serif" font-size="6" font-weight="normal" fill="#3b82f6">Gráfica</text>
<rect x="106" y="256" width="128" height="36" fill="#ddd6fe" stroke="#94a3b8" stroke-width="0.8" rx="2"/>
<text x="170" y="277" text-anchor="middle" font-family="system-ui,ui-sans-serif,sans-serif" font-size="7" font-weight="normal" fill="#475569">Simulación</text>
<text x="138" y="312" text-anchor="middle" font-family="system-ui,ui-sans-serif,sans-serif" font-size="13" font-weight="700" fill="#0f172a">Estándar</text>
<text x="138" y="328" text-anchor="middle" font-family="system-ui,ui-sans-serif,sans-serif" font-size="9" font-weight="normal" fill="#64748b">Controles izq. · Sim debajo</text>
<rect x="250" y="62" width="192" height="230" fill="white" stroke="#94a3b8" stroke-width="1.5" rx="6"/>
<rect x="250" y="62" width="192" height="20" fill="#e2e8f0" stroke="none" stroke-width="0" rx="6 6 0 0"/>
<circle cx="259" cy="72" r="4.5" fill="#f87171"/>
<circle cx="272" cy="72" r="4.5" fill="#fbbf24"/>
<circle cx="285" cy="72" r="4.5" fill="#4ade80"/>
<rect x="305" y="66" width="82" height="12" fill="#f1f5f9" stroke="#e2e8f0" stroke-width="0.5" rx="3"/>
<rect x="250" y="84" width="55" height="208" fill="#f8fafc" stroke="#e2e8f0" stroke-width="0.8" rx="0"/>
<rect x="251" y="84" width="53" height="40" fill="#bfdbfe" stroke="#94a3b8" stroke-width="0.8" rx="2"/>
<text x="277" y="107" text-anchor="middle" font-family="system-ui,ui-sans-serif,sans-serif" font-size="7" font-weight="normal" fill="#475569">Header</text>
<rect x="251" y="125" width="53" height="40" fill="#d1fae5" stroke="#94a3b8" stroke-width="0.8" rx="2"/>
<text x="277" y="148" text-anchor="middle" font-family="system-ui,ui-sans-serif,sans-serif" font-size="7" font-weight="normal" fill="#475569">Archivo</text>
<rect x="251" y="166" width="53" height="40" fill="#ede9fe" stroke="#94a3b8" stroke-width="0.8" rx="2"/>
<text x="277" y="189" text-anchor="middle" font-family="system-ui,ui-sans-serif,sans-serif" font-size="7" font-weight="normal" fill="#475569">Resultados</text>
<rect x="251" y="207" width="53" height="40" fill="#fef08a" stroke="#94a3b8" stroke-width="0.8" rx="2"/>
<text x="277" y="230" text-anchor="middle" font-family="system-ui,ui-sans-serif,sans-serif" font-size="7" font-weight="normal" fill="#475569">Calibr.</text>
<rect x="251" y="248" width="53" height="43" fill="#fce7f3" stroke="#94a3b8" stroke-width="0.8" rx="2"/>
<text x="277" y="272" text-anchor="middle" font-family="system-ui,ui-sans-serif,sans-serif" font-size="7" font-weight="normal" fill="#475569">Ref.</text>
<rect x="305" y="84" width="75" height="208" fill="#dbeafe" stroke="#93c5fd" stroke-width="0.8" rx="2"/>
<polyline points="309,188 317,188 325,188 334,188 342,200 350,188 359,188 367,188 376,188" fill="none" stroke="#2563eb" stroke-width="1.5"/>
<text x="342" y="95" text-anchor="middle" font-family="system-ui,ui-sans-serif,sans-serif" font-size="6" font-weight="normal" fill="#3b82f6">Gráfica</text>
<rect x="380" y="84" width="62" height="208" fill="#f5f3ff" stroke="#c4b5fd" stroke-width="0.8" rx="2"/>
<text x="411" y="182" text-anchor="middle" font-family="system-ui,ui-sans-serif,sans-serif" font-size="8" font-weight="600" fill="#4c1d95">Sim.</text>
<text x="411" y="196" text-anchor="middle" font-family="system-ui,ui-sans-serif,sans-serif" font-size="7" font-weight="normal" fill="#6d28d9">controles</text>
<text x="346" y="312" text-anchor="middle" font-family="system-ui,ui-sans-serif,sans-serif" font-size="13" font-weight="700" fill="#0f172a">Tres columnas</text>
<text x="346" y="328" text-anchor="middle" font-family="system-ui,ui-sans-serif,sans-serif" font-size="9" font-weight="normal" fill="#64748b">Izq. · Gráfica · Sim dcha.</text>
<rect x="458" y="62" width="192" height="230" fill="white" stroke="#94a3b8" stroke-width="1.5" rx="6"/>
<rect x="458" y="62" width="192" height="20" fill="#e2e8f0" stroke="none" stroke-width="0" rx="6 6 0 0"/>
<circle cx="467" cy="72" r="4.5" fill="#f87171"/>
<circle cx="480" cy="72" r="4.5" fill="#fbbf24"/>
<circle cx="493" cy="72" r="4.5" fill="#4ade80"/>
<rect x="513" y="66" width="82" height="12" fill="#f1f5f9" stroke="#e2e8f0" stroke-width="0.5" rx="3"/>
<rect x="458" y="84" width="48" height="208" fill="#f8fafc" stroke="#e2e8f0" stroke-width="0.8" rx="0"/>
<rect x="459" y="84" width="46" height="68" fill="#bfdbfe" stroke="#94a3b8" stroke-width="0.8" rx="2"/>
<text x="482" y="121" text-anchor="middle" font-family="system-ui,ui-sans-serif,sans-serif" font-size="7" font-weight="normal" fill="#475569">Header</text>
<rect x="459" y="153" width="46" height="68" fill="#d1fae5" stroke="#94a3b8" stroke-width="0.8" rx="2"/>
<text x="482" y="190" text-anchor="middle" font-family="system-ui,ui-sans-serif,sans-serif" font-size="7" font-weight="normal" fill="#475569">Archivo</text>
<rect x="459" y="222" width="46" height="69" fill="#fef08a" stroke="#94a3b8" stroke-width="0.8" rx="2"/>
<text x="482" y="259" text-anchor="middle" font-family="system-ui,ui-sans-serif,sans-serif" font-size="7" font-weight="normal" fill="#475569">Calibr.</text>
<rect x="506" y="84" width="78" height="24" fill="#ede9fe" stroke="#94a3b8" stroke-width="0.8" rx="2"/>
<text x="545" y="99" text-anchor="middle" font-family="system-ui,ui-sans-serif,sans-serif" font-size="7" font-weight="normal" fill="#475569">Resultados</text>
<rect x="506" y="108" width="78" height="24" fill="#fce7f3" stroke="#94a3b8" stroke-width="0.8" rx="2"/>
<text x="545" y="123" text-anchor="middle" font-family="system-ui,ui-sans-serif,sans-serif" font-size="7" font-weight="normal" fill="#475569">Ref.</text>
<rect x="506" y="132" width="78" height="160" fill="#dbeafe" stroke="#93c5fd" stroke-width="0.8" rx="2"/>
<polyline points="510,212 518,212 527,212 536,212 545,224 553,212 562,212 571,212 580,212" fill="none" stroke="#2563eb" stroke-width="1.5"/>
<text x="545" y="143" text-anchor="middle" font-family="system-ui,ui-sans-serif,sans-serif" font-size="6" font-weight="normal" fill="#3b82f6">Gráfica</text>
<rect x="584" y="84" width="66" height="208" fill="#f5f3ff" stroke="#c4b5fd" stroke-width="0.8" rx="2"/>
<text x="617" y="182" text-anchor="middle" font-family="system-ui,ui-sans-serif,sans-serif" font-size="8" font-weight="600" fill="#4c1d95">Sim.</text>
<text x="617" y="196" text-anchor="middle" font-family="system-ui,ui-sans-serif,sans-serif" font-size="7" font-weight="normal" fill="#6d28d9">controles</text>
<text x="554" y="312" text-anchor="middle" font-family="system-ui,ui-sans-serif,sans-serif" font-size="13" font-weight="700" fill="#0f172a">Análisis</text>
<text x="554" y="328" text-anchor="middle" font-family="system-ui,ui-sans-serif,sans-serif" font-size="9" font-weight="normal" fill="#64748b">Info/Ref. en centro · Sim dcha.</text>
<rect x="666" y="62" width="192" height="230" fill="white" stroke="#94a3b8" stroke-width="1.5" rx="6"/>
<rect x="666" y="62" width="192" height="20" fill="#e2e8f0" stroke="none" stroke-width="0" rx="6 6 0 0"/>
<circle cx="675" cy="72" r="4.5" fill="#f87171"/>
<circle cx="688" cy="72" r="4.5" fill="#fbbf24"/>
<circle cx="701" cy="72" r="4.5" fill="#4ade80"/>
<rect x="721" y="66" width="82" height="12" fill="#f1f5f9" stroke="#e2e8f0" stroke-width="0.5" rx="3"/>
<rect x="666" y="84" width="46" height="208" fill="#f8fafc" stroke="#e2e8f0" stroke-width="0.8" rx="0"/>
<rect x="667" y="84" width="44" height="103" fill="#bfdbfe" stroke="#94a3b8" stroke-width="0.8" rx="2"/>
<text x="689" y="138" text-anchor="middle" font-family="system-ui,ui-sans-serif,sans-serif" font-size="7" font-weight="normal" fill="#475569">Header</text>
<rect x="667" y="188" width="44" height="103" fill="#fef08a" stroke="#94a3b8" stroke-width="0.8" rx="2"/>
<text x="689" y="242" text-anchor="middle" font-family="system-ui,ui-sans-serif,sans-serif" font-size="7" font-weight="normal" fill="#475569">Calibr.</text>
<rect x="712" y="84" width="146" height="172" fill="#dbeafe" stroke="#93c5fd" stroke-width="0.8" rx="2"/>
<polyline points="716,170 733,170 750,170 767,170 785,182 802,170 819,170 836,170 854,170" fill="none" stroke="#2563eb" stroke-width="1.5"/>
<text x="785" y="95" text-anchor="middle" font-family="system-ui,ui-sans-serif,sans-serif" font-size="6" font-weight="normal" fill="#3b82f6">Gráfica</text>
<rect x="712" y="256" width="146" height="36" fill="#ddd6fe" stroke="#94a3b8" stroke-width="0.8" rx="2"/>
<text x="785" y="277" text-anchor="middle" font-family="system-ui,ui-sans-serif,sans-serif" font-size="7" font-weight="normal" fill="#475569">Simulación</text>
<text x="762" y="312" text-anchor="middle" font-family="system-ui,ui-sans-serif,sans-serif" font-size="13" font-weight="700" fill="#0f172a">Compacto</text>
<text x="762" y="328" text-anchor="middle" font-family="system-ui,ui-sans-serif,sans-serif" font-size="9" font-weight="normal" fill="#64748b">Solo calibr. · Máx. gráfica</text>
</svg>